<svg width="40" height="40" viewBox="0 0 40 40" fill="none" xmlns="http://www.w3.org/2000/svg">
<path d="M13.75 13.75C13.75 12.0924 14.4085 10.5027 15.5806 9.33058C16.7527 8.15848 18.3424 7.5 20 7.5C21.6576 7.5 23.2473 8.15848 24.4194 9.33058C25.5915 10.5027 26.25 12.0924 26.25 13.75" stroke="black" stroke-linecap="round" stroke-linejoin="round"/>
<path d="M10.625 14.375H29.375C30.625 14.375 31.5625 15.525 31.325 16.7375L29.7875 24.4375C29.7715 25.2447 29.4437 26.0144 28.8728 26.5853C28.3019 27.1562 27.5322 27.484 26.725 27.5H13.275C12.4678 27.484 11.6981 27.1562 11.1272 26.5853C10.5563 26.0144 10.2285 25.2447 10.2125 24.4375L8.67498 16.7375C8.61977 16.4501 8.62869 16.1541 8.70112 15.8706C8.77355 15.587 8.9077 15.323 9.09398 15.0973C9.28026 14.8716 9.51407 14.6899 9.77873 14.565C10.0434 14.4401 10.3323 14.3753 10.625 14.375Z" stroke="black" stroke-linecap="round" stroke-linejoin="round"/>
<path d="M15 17.5V21.25" stroke="black" stroke-linecap="round"/>
<path d="M20 17.5V21.25" stroke="black" stroke-linecap="round"/>
<path d="M25 17.5V21.25" stroke="black" stroke-linecap="round"/>
</svg>
