<svg width="40" height="40" viewBox="0 0 40 40" fill="none" xmlns="http://www.w3.org/2000/svg">
<path d="M20 29.95C25.2191 29.95 29.4501 25.7191 29.4501 20.5C29.4501 15.2809 25.2191 11.05 20 11.05C14.781 11.05 10.55 15.2809 10.55 20.5C10.55 25.7191 14.781 29.95 20 29.95Z" stroke="black"/>
<path d="M20.0001 19.86C21.6238 19.86 22.9401 18.5437 22.9401 16.92C22.9401 15.2963 21.6238 13.98 20.0001 13.98C18.3763 13.98 17.0601 15.2963 17.0601 16.92C17.0601 18.5437 18.3763 19.86 20.0001 19.86Z" stroke="black"/>
<path d="M14.6801 26.44C15.8701 23.78 17.7601 22.45 20.0001 22.45C22.2401 22.45 24.1301 23.78 25.3201 26.44" stroke="black" stroke-linecap="round" stroke-linejoin="round"/>
</svg>
