<svg width="40" height="40" viewBox="0 0 40 40" fill="none" xmlns="http://www.w3.org/2000/svg">
<path d="M20 16.5C20 16.5 20 16.5 19.335 15.625C18.565 14.61 17.4275 13.875 16.0625 13.875C13.8837 13.875 12.125 15.6337 12.125 17.8125C12.125 18.6263 12.37 19.3788 12.79 20C13.4987 21.0588 20 27.875 20 27.875M20 16.5C20 16.5 20 16.5 20.665 15.625C21.435 14.61 22.5725 13.875 23.9375 13.875C26.1163 13.875 27.875 15.6337 27.875 17.8125C27.875 18.6263 27.63 19.3788 27.21 20C26.5012 21.0588 20 27.875 20 27.875" stroke="black" stroke-linecap="round" stroke-linejoin="round"/>
</svg>
